<svg width="29" height="23" viewBox="0 0 29 23" fill="none" xmlns="http://www.w3.org/2000/svg">
<g clip-path="url(#clip0_1_230)">
<path d="M27.689 18.9318L20.9852 14.5294C20.2918 14.0472 19.5506 13.8273 18.9528 13.8478C20.5359 12.4162 21.491 10.5599 21.491 8.53014C21.491 4.00341 16.74 0.334488 10.8781 0.334488C5.0162 0.334488 0.265137 4.00341 0.265137 8.53014C0.265137 13.0569 5.0162 16.7258 10.8781 16.7258C13.5066 16.7258 15.9104 15.9882 17.7641 14.7657C17.7358 15.2274 18.0224 15.7997 18.6468 16.3351L24.3477 21.5121C25.3241 22.3494 26.9178 22.4204 27.8907 21.6691C28.8635 20.9179 28.7715 19.6858 27.6872 18.9332L27.689 18.9318ZM10.8781 13.9925C6.97075 13.9925 3.80279 11.5461 3.80279 8.52877C3.80279 5.51141 6.97075 3.06501 10.8781 3.06501C14.7854 3.06501 17.9534 5.51141 17.9534 8.52877C17.9534 11.5461 14.7854 13.9925 10.8781 13.9925Z" fill="black"/>
</g>
<defs>
<clipPath id="clip0_1_230">
<rect width="28.3012" height="21.8551" fill="white" transform="translate(0.265137 0.333328)"/>
</clipPath>
</defs>
</svg>
